M48
; DRILL file {KiCad 7.0.5} date Sat Jun 17 21:45:52 2023
; FORMAT={-:-/ absolute / inch / decimal}
; #@! TF.CreationDate,2023-06-17T21:45:52-05:00
; #@! TF.GenerationSoftware,Kicad,Pcbnew,7.0.5
; #@! TF.FileFunction,MixedPlating,1,2
FMAT,2
INCH
; #@! TA.AperFunction,Plated,PTH,ComponentDrill
T1C0.0079
; #@! TA.AperFunction,Plated,PTH,ViaDrill
T2C0.0118
; #@! TA.AperFunction,Plated,PTH,ComponentDrill
T3C0.0157
; #@! TA.AperFunction,Plated,PTH,ComponentDrill
T4C0.0197
; #@! TA.AperFunction,Plated,PTH,ComponentDrill
T5C0.0295
; #@! TA.AperFunction,Plated,PTH,ComponentDrill
T6C0.0320
; #@! TA.AperFunction,Plated,PTH,ComponentDrill
T7C0.0335
; #@! TA.AperFunction,Plated,PTH,ComponentDrill
T8C0.0394
; #@! TA.AperFunction,Plated,PTH,ComponentDrill
T9C0.0591
; #@! TA.AperFunction,Plated,PTH,ComponentDrill
T10C0.0866
; #@! TA.AperFunction,NonPlated,NPTH,ComponentDrill
T11C0.0276
; #@! TA.AperFunction,NonPlated,NPTH,ComponentDrill
T12C0.0354
; #@! TA.AperFunction,NonPlated,NPTH,ComponentDrill
T13C0.0472
; #@! TA.AperFunction,NonPlated,NPTH,ComponentDrill
T14C0.0669
; #@! TA.AperFunction,NonPlated,NPTH,ComponentDrill
T15C0.0748
; #@! TA.AperFunction,NonPlated,NPTH,ComponentDrill
T16C0.0866
; #@! TA.AperFunction,NonPlated,NPTH,ComponentDrill
T17C0.1181
; #@! TA.AperFunction,NonPlated,NPTH,ComponentDrill
T18C0.1260
; #@! TA.AperFunction,NonPlated,NPTH,ComponentDrill
T19C0.1614
%
G90
G05
T1
X3.1992Y-4.6776
X3.1992Y-4.8232
X3.276Y-4.7022
X3.276Y-4.7504
X3.276Y-4.7986
T2
X2.9744Y-6.0177
X3.0741Y-5.9532
X3.1148Y-5.9599
X3.1962Y-2.5133
X3.2047Y-2.7283
X3.2175Y-2.5354
X3.2264Y-4.1811
X3.2381Y-2.5157
X3.2441Y-3.9961
X3.2529Y-4.9513
X3.2575Y-4.2218
X3.2723Y-2.5155
X3.2943Y-4.3199
X3.3009Y-5.7734
X3.3386Y-5.685
X3.3811Y-2.4972
X3.4077Y-2.5567
X3.4105Y-4.8834
X3.4134Y-5.9055
X3.4135Y-2.8584
X3.4138Y-2.8287
X3.4183Y-5.7628
X3.4256Y-2.4175
X3.4291Y-2.2362
X3.4305Y-2.8104
X3.4311Y-2.7421
X3.4463Y-2.3574
X3.4468Y-6.3191
X3.4656Y-3.0896
X3.4685Y-4.6654
X3.4999Y-4.9465
X3.5274Y-4.9459
X3.5453Y-5.0492
X3.5561Y-3.939
X3.6063Y-5.437
X3.6142Y-5.0492
X3.7093Y-6.0487
X3.7415Y-5.4115
X3.748Y-5.3758
X3.7918Y-5.3899
X3.7945Y-4.04
X3.7953Y-5.4685
X3.7954Y-4.0152
X3.7992Y-3.939
X3.8465Y-5.8622
X3.876Y-3.939
X3.8979Y-3.8457
X3.9004Y-3.8138
X3.9203Y-3.939
X3.9462Y-4.0634
X3.9754Y-3.939
X4.0049Y-5.8117
X4.0213Y-2.4845
X4.0433Y-5.2457
X4.0514Y-2.6839
X4.0516Y-2.8841
X4.0522Y-2.9846
X4.0525Y-2.785
X4.0525Y-3.085
X4.0528Y-3.3852
X4.0531Y-3.1856
X4.0542Y-3.2867
X4.0778Y-3.939
X4.0866Y-5.3022
X4.1696Y-2.5369
X4.1745Y-2.7488
X4.2457Y-3.0791
X4.2638Y-2.4055
X4.2677Y-2.2913
X4.2794Y-3.1472
X4.2818Y-3.4303
X4.3039Y-3.5111
X4.3548Y-5.6212
X4.4488Y-3.2677
X4.4587Y-5.4154
X4.4701Y-3.2217
X4.481Y-4.5591
X4.4909Y-3.6125
X4.5228Y-3.9748
X4.5276Y-3.2677
X4.5394Y-3.0886
X4.5656Y-4.9846
X4.5984Y-4.9016
X4.6006Y-5.0073
X4.6063Y-3.9045
X4.608Y-2.5685
X4.6106Y-4.0703
X4.6109Y-3.3187
X4.6326Y-2.6013
X4.6326Y-2.6702
X4.6347Y-4.1044
X4.635Y-3.3534
X4.672Y-3.4232
X4.672Y-4.1741
X4.6954Y-5.4744
X4.8608Y-4.0344
X4.8609Y-3.2835
X4.8846Y-4.9312
X4.8979Y-4.1042
X4.898Y-3.3533
X4.8999Y-2.6015
X4.9055Y-2.4961
X4.9055Y-3.2598
X4.9055Y-4.0079
X4.9085Y-4.6112
X4.9264Y-3.8823
X4.9488Y-3.0984
X5.0423Y-2.8661
X5.0423Y-3.6161
X5.0423Y-4.3681
X5.05Y-3.9146
X5.0827Y-3.0039
X5.1039Y-5.373
X5.1545Y-3.0147
X5.1549Y-3.0562
X5.1906Y-4.4098
X5.1917Y-4.2012
X5.1969Y-2.9882
X5.1969Y-3.0935
X5.1969Y-3.2165
X5.2177Y-3.9304
X5.2179Y-3.0347
X5.2179Y-3.9006
X5.2179Y-4.0893
X5.2362Y-5.4567
X5.2402Y-5.0079
X5.2594Y-3.8601
X5.2795Y-3.1575
X5.2917Y-4.0
X5.3071Y-3.7254
X5.314Y-4.0896
X5.3268Y-4.6654
X5.3307Y-2.5394
X5.3343Y-2.4743
X5.3543Y-3.0236
X5.3543Y-5.3287
X5.3575Y-2.4515
X5.358Y-3.9539
X5.3584Y-3.2007
X5.3612Y-3.8789
X5.3821Y-2.4841
X5.3825Y-3.9863
X5.3826Y-3.2352
X5.3927Y-3.8041
X5.3937Y-4.1526
X5.4053Y-5.3235
X5.4331Y-4.8917
X5.4507Y-4.8505
X5.4744Y-4.8159
X5.4823Y-4.6142
X5.4985Y-4.8505
X5.5139Y-4.4368
X5.5295Y-4.4567
X5.5591Y-3.7638
X5.5862Y-3.0008
X5.6079Y-4.6329
X5.6086Y-4.1279
X5.6461Y-3.9863
X5.6462Y-3.2355
X5.6464Y-2.4847
X5.6535Y-2.563
X5.6634Y-4.1427
X5.6801Y-4.6752
X5.6847Y-4.4593
X5.6876Y-4.6122
X5.7283Y-4.3491
X5.7598Y-5.0079
X5.7619Y-4.8504
X5.7657Y-3.8986
X5.7852Y-4.6106
X5.7898Y-2.7489
X5.7899Y-3.4981
X5.7904Y-4.2047
X5.7983Y-4.4041
X5.8031Y-4.7894
X5.8031Y-4.8514
X5.8244Y-4.5271
X5.8268Y-4.2037
X5.8504Y-5.3327
X5.8524Y-3.3986
X5.8722Y-4.6118
X5.9016Y-4.1092
X5.9016Y-4.1506
X5.9035Y-2.3199
X5.9035Y-2.5176
X5.9335Y-3.7913
X5.9429Y-5.2874
X5.9449Y-4.2244
X5.9449Y-5.0315
X5.9465Y-3.3992
X5.9488Y-2.5276
X5.9488Y-4.0602
X5.9528Y-4.5901
X5.9539Y-2.8854
X5.9679Y-3.528
X5.9685Y-2.7741
X5.9961Y-4.5
X6.0305Y-4.8576
X6.0315Y-2.8031
X6.0325Y-3.372
X6.0563Y-2.924
X6.0708Y-4.8426
X6.1053Y-3.435
X6.1063Y-2.6811
X6.1073Y-2.0955
X6.1083Y-2.8461
X6.1084Y-3.5974
X6.1116Y-4.8256
X6.1313Y-2.1294
X6.1325Y-2.881
X6.1326Y-3.6317
X6.1604Y-4.8078
X6.169Y-2.2074
X6.1698Y-2.9508
X6.17Y-3.7017
X6.3587Y-2.8111
X6.3587Y-3.5619
X6.3701Y-2.7598
X6.374Y-3.5157
X6.3819Y-2.3031
X6.3819Y-3.0512
X6.3819Y-3.7992
X6.3958Y-2.881
X6.3959Y-3.6317
X6.3974Y-2.1308
X6.4035Y-2.2156
X6.4223Y-2.0952
X6.4915Y-4.3032
X6.501Y-2.1988
X6.5396Y-3.1443
X6.5398Y-2.3514
X6.54Y-3.8957
X6.6447Y-3.9557
X6.6517Y-2.3805
X6.6646Y-4.6322
X6.717Y-3.6949
X6.7524Y-4.5146
X6.7544Y-2.967
X6.8179Y-2.9045
X6.8181Y-3.9272
X6.8307Y-3.2047
X6.8307Y-3.2953
X6.8711Y-3.8445
X6.876Y-3.9984
X6.9001Y-4.0298
X6.9287Y-3.2487
X6.9311Y-3.0787
X6.953Y-3.2808
X6.9786Y-2.4992
X7.0033Y-2.5306
X7.0157Y-2.4518
X7.0157Y-4.5669
X7.0315Y-2.622
X7.0433Y-3.9213
X7.0669Y-3.0709
X7.0984Y-3.815
X7.1063Y-3.1732
X7.1496Y-3.0709
X7.1639Y-4.0488
X7.2152Y-3.2992
X7.2714Y-2.5484
X7.2846Y-4.3215
X7.2992Y-2.4724
X7.3346Y-4.7087
X7.3367Y-3.5712
X7.3755Y-4.6257
X7.3896Y-2.8232
X7.3967Y-4.6439
X7.4016Y-4.7638
X7.4252Y-5.0354
X7.4986Y-3.9913
X7.5009Y-3.3203
X7.5236Y-4.6142
X7.5285Y-3.186
X7.5726Y-4.5494
X7.6017Y-4.5432
X7.6181Y-4.4724
X7.6259Y-4.5693
X7.626Y-5.0787
X7.7165Y-3.9291
X7.7334Y-3.8035
X7.7548Y-3.9026
X7.7577Y-3.8309
X7.7726Y-2.3724
X7.7795Y-3.9488
X7.8425Y-3.189
X7.8465Y-4.7402
X7.8568Y-4.5401
X7.8641Y-3.0639
X7.885Y-3.162
X7.8873Y-4.6167
X7.8881Y-3.0916
X7.9055Y-3.5984
X7.9733Y-4.8979
X7.9764Y-4.0394
X7.9803Y-4.3791
X7.9864Y-3.8003
X7.9882Y-3.685
X8.0023Y-3.9914
X8.0174Y-3.877
X8.0193Y-5.2228
X8.0659Y-2.3858
X8.0876Y-4.9675
X8.1368Y-4.1457
X8.1472Y-4.7693
X8.1479Y-3.1372
X8.1614Y-4.3504
X8.1614Y-4.9656
X8.2341Y-3.4196
X8.2354Y-4.9568
X8.3331Y-4.2291
X8.3525Y-4.389
X8.3654Y-4.2189
X8.3747Y-4.473
X8.3858Y-4.2844
X8.399Y-4.5065
X8.4016Y-4.6024
X8.4094Y-4.3661
X8.4409Y-3.7559
X8.5059Y-3.7398
X8.5299Y-3.7673
X8.5512Y-3.8701
X8.5512Y-4.252
X8.6181Y-4.7028
X8.626Y-4.1102
X8.659Y-4.5526
X8.7455Y-4.8353
X8.7897Y-3.8135
X8.8757Y-4.097
T3
X3.428Y-5.6093
X3.5226Y-5.7039
X3.9047Y-4.211
X4.0386Y-4.211
X4.1997Y-5.1349
X4.2666Y-5.2509
X4.5315Y-4.6571
X4.5394Y-3.1535
X4.5394Y-3.9055
X4.6654Y-4.6571
X4.6732Y-3.1535
X4.6732Y-3.9055
X5.0655Y-4.8653
X5.1001Y-4.9946
X5.2874Y-3.0354
X5.3267Y-3.7873
X5.4213Y-3.0354
X5.4605Y-3.7873
X5.8346Y-3.9961
X5.8346Y-4.1299
X5.9687Y-4.827
X5.9687Y-4.9608
X6.0354Y-4.185
X6.0385Y-3.4325
X6.0394Y-2.6811
X6.1693Y-4.185
X6.1724Y-3.4325
X6.1732Y-2.6811
X6.8071Y-4.5748
X6.8074Y-3.8253
X6.8622Y-3.0748
X6.9406Y-4.5841
X6.9409Y-3.8346
X6.9957Y-3.0841
X7.4262Y-5.0947
X7.5572Y-4.3586
X7.558Y-5.1179
X7.6871Y-3.6185
X7.689Y-4.3819
X7.8189Y-3.6417
X8.5375Y-5.087
X8.6693Y-4.3543
X8.6693Y-5.1102
X8.8011Y-4.3776
T4
X6.0437Y-4.5783
X6.5634Y-4.5783
T5
X3.2421Y-4.0472
X3.2421Y-4.126
T6
X3.4953Y-2.2378
X3.4953Y-2.3378
X3.4953Y-2.4378
X3.4953Y-2.5378
X3.4953Y-2.6378
X3.4953Y-2.7378
X3.4953Y-2.8378
X3.4953Y-2.9378
X3.4953Y-3.0378
X3.4953Y-3.1378
X3.4953Y-3.2378
X3.4953Y-3.3378
X3.5464Y-2.2849
X3.5464Y-2.3849
X3.5464Y-2.4849
X3.5464Y-2.5849
X3.5464Y-2.6849
X3.5464Y-2.7849
X3.5464Y-2.8849
X3.5464Y-2.9849
X3.5464Y-3.0849
X3.5464Y-3.1849
X3.5464Y-3.2849
X3.5464Y-3.3849
X4.0953Y-2.2378
X4.0953Y-2.3378
X4.0953Y-2.4378
X4.0953Y-2.5378
X4.0953Y-2.6378
X4.0953Y-2.7378
X4.0953Y-2.8378
X4.0953Y-2.9378
X4.0953Y-3.0378
X4.0953Y-3.1378
X4.0953Y-3.2378
X4.0953Y-3.3378
X4.1464Y-2.2849
X4.1464Y-2.3849
X4.1464Y-2.4849
X4.1464Y-2.5849
X4.1464Y-2.6849
X4.1464Y-2.7849
X4.1464Y-2.8849
X4.1464Y-2.9849
X4.1464Y-3.0849
X4.1464Y-3.1849
X4.1464Y-3.2849
X4.1464Y-3.3849
T7
X5.4311Y-4.7283
X5.5311Y-4.7283
X5.6311Y-4.7283
X5.7311Y-4.7283
X5.8311Y-4.7283
T8
X3.248Y-4.3858
X3.248Y-4.5276
X3.4681Y-4.3878
X3.4681Y-4.4862
X3.4681Y-4.5846
X3.6468Y-3.8762
X3.7468Y-3.8762
X3.8468Y-3.8762
X3.9468Y-3.8762
X4.039Y-4.3878
X4.039Y-4.5846
X7.674Y-2.1909
X7.774Y-2.1909
X7.874Y-2.1909
X7.974Y-2.1909
X8.074Y-2.1909
T10
X5.1397Y-3.7953
X5.8897Y-3.0453
X6.6397Y-3.7953
T11
X3.2382Y-2.5758
X3.2402Y-2.4577
T12
X3.2406Y-4.6667
X3.2406Y-4.8341
T13
X3.2441Y-5.0148
X3.2441Y-5.0837
X3.5197Y-5.0148
X3.5197Y-5.0837
T14
X3.2358Y-6.1447
X3.4864Y-5.8942
X3.872Y-5.5938
X4.1789Y-5.4166
X4.5893Y-2.819
X4.5893Y-3.5699
X4.5893Y-4.3208
X4.628Y-5.2261
X4.9436Y-2.819
X4.9436Y-3.5699
X4.9436Y-4.3208
X4.9702Y-5.1344
X5.3371Y-2.7009
X5.3371Y-3.4518
X5.3371Y-4.2027
X5.4532Y-5.0668
X5.6914Y-2.7009
X5.6914Y-3.4518
X5.6914Y-4.2027
X5.8075Y-5.0668
X6.0871Y-2.3466
X6.0871Y-3.0975
X6.0871Y-3.8483
X6.4414Y-2.3466
X6.4414Y-3.0975
X6.4414Y-3.8483
X6.8399Y-4.2427
X6.8923Y-3.4937
X6.9446Y-2.7446
X7.1934Y-4.2674
X7.2457Y-3.5184
X7.2981Y-2.7693
X7.5452Y-4.7759
X7.6756Y-4.0365
X7.806Y-3.297
X7.8942Y-4.8375
X8.0246Y-4.098
X8.1549Y-3.3585
X8.317Y-4.7121
X8.4473Y-3.9727
X8.6659Y-4.7737
X8.7963Y-4.0342
T15
X3.2197Y-6.1609
X3.5025Y-5.878
X3.8523Y-5.6052
X4.1987Y-5.4052
X4.5665Y-2.819
X4.5665Y-3.5699
X4.5665Y-4.3208
X4.6059Y-5.232
X4.9665Y-2.819
X4.9665Y-3.5699
X4.9665Y-4.3208
X4.9923Y-5.1285
X5.3142Y-2.7009
X5.3142Y-3.4518
X5.3142Y-4.2027
X5.4304Y-5.0668
X5.7142Y-2.7009
X5.7142Y-3.4518
X5.7142Y-4.2027
X5.8304Y-5.0668
X6.0642Y-2.3466
X6.0642Y-3.0975
X6.0642Y-3.8483
X6.4642Y-2.3466
X6.4642Y-3.0975
X6.4642Y-3.8483
X6.8171Y-4.2411
X6.8695Y-3.4921
X6.9219Y-2.743
X7.2161Y-4.269
X7.2685Y-3.52
X7.3209Y-2.7709
X7.5227Y-4.772
X7.6531Y-4.0325
X7.7835Y-3.293
X7.9167Y-4.8414
X8.047Y-4.102
X8.1774Y-3.3625
X8.2945Y-4.7082
X8.4249Y-3.9687
X8.6884Y-4.7776
X8.8188Y-4.0381
T16
X7.6083Y-2.9547
T17
X3.3258Y-6.1962
X3.4318Y-6.2316
X3.5379Y-5.9841
X3.5732Y-6.0902
X3.9456Y-5.6668
X4.0389Y-5.7284
X4.2054Y-5.5168
X4.2121Y-5.6284
X4.6165Y-2.919
X4.6165Y-3.6699
X4.6165Y-4.4208
X4.6665Y-3.019
X4.6665Y-3.7699
X4.6665Y-4.5208
X4.6801Y-5.3157
X4.7543Y-5.3993
X4.8665Y-3.019
X4.8665Y-3.7699
X4.8665Y-4.5208
X4.9165Y-2.919
X4.9165Y-3.6699
X4.9165Y-4.4208
X4.9475Y-5.3476
X4.9699Y-5.238
X5.3642Y-2.8009
X5.3642Y-3.5518
X5.3642Y-4.3027
X5.4142Y-2.9009
X5.4142Y-3.6518
X5.4142Y-4.4027
X5.4804Y-5.1668
X5.5304Y-5.2668
X5.6142Y-2.9009
X5.6142Y-3.6518
X5.6142Y-4.4027
X5.6642Y-2.8009
X5.6642Y-3.5518
X5.6642Y-4.3027
X5.7304Y-5.2668
X5.7804Y-5.1668
X6.1142Y-2.4466
X6.1142Y-3.1975
X6.1142Y-3.9483
X6.1642Y-2.5466
X6.1642Y-3.2975
X6.1642Y-4.0483
X6.3642Y-2.5466
X6.3642Y-3.2975
X6.3642Y-4.0483
X6.4142Y-2.4466
X6.4142Y-3.1975
X6.4142Y-3.9483
X6.86Y-4.3444
X6.9029Y-4.4476
X6.9124Y-3.5953
X6.9553Y-3.6986
X6.9648Y-2.8463
X7.0077Y-2.9495
X7.1024Y-4.4616
X7.1548Y-3.7125
X7.1593Y-4.3653
X7.2072Y-2.9635
X7.2117Y-3.6162
X7.264Y-2.8672
X7.5546Y-4.8791
X7.5865Y-4.9863
X7.685Y-4.1397
X7.7169Y-4.2468
X7.7834Y-5.021
X7.8154Y-3.4002
X7.8473Y-3.5073
X7.85Y-4.9312
X7.9138Y-4.2816
X7.9804Y-4.1918
X8.0442Y-3.5421
X8.1108Y-3.4523
X8.3263Y-4.8153
X8.3582Y-4.9225
X8.4567Y-4.0759
X8.4886Y-4.183
X8.5552Y-4.9572
X8.6218Y-4.8674
X8.6856Y-4.2177
X8.7522Y-4.1279
T18
X3.2803Y-2.1937
X3.2803Y-5.3209
X5.7244Y-2.1937
X6.5866Y-3.4665
X6.6909Y-4.7917
X6.8563Y-2.1937
X7.148Y-4.8217
X7.4406Y-2.2335
T19
X3.3611Y-6.0194
X4.0255Y-5.5052
X4.7665Y-2.819
X4.7665Y-3.5699
X4.7665Y-4.3208
X4.7991Y-5.1803
X5.5142Y-2.7009
X5.5142Y-3.4518
X5.5142Y-4.2027
X5.6304Y-5.0668
X6.2642Y-2.3466
X6.2642Y-3.0975
X6.2642Y-3.8483
X7.0166Y-4.2551
X7.069Y-3.506
X7.1214Y-2.757
X7.7197Y-4.8067
X7.8501Y-4.0672
X7.9805Y-3.3277
X8.4914Y-4.7429
X8.6218Y-4.0034
T8
G00X3.3051Y-4.9321
M15
G01X3.3248Y-4.9321
M16
G05
G00X3.3051Y-5.1663
M15
G01X3.3248Y-5.1663
M16
G05
G00X3.4232Y-4.9321
M15
G01X3.4429Y-4.9321
M16
G05
G00X3.4232Y-5.1663
M15
G01X3.4429Y-5.1663
M16
G05
G00X3.5807Y-4.9321
M15
G01X3.6004Y-4.9321
M16
G05
G00X3.5807Y-5.1663
M15
G01X3.6004Y-5.1663
M16
G05
G00X3.6398Y-5.001
M15
G01X3.6594Y-5.001
M16
G05
G00X3.6398Y-5.0974
M15
G01X3.6594Y-5.0974
M16
G05
T9
G00X3.7378Y-4.2657
M15
G01X3.789Y-4.2657
M16
G05
G00X3.7378Y-4.7067
M15
G01X3.789Y-4.7067
M16
G05
T0
M30
